<?xml version="1.0" encoding="UTF-8"?>
<svg width="10px" height="16px" viewBox="0 0 10 16" version="1.1" xmlns="http://www.w3.org/2000/svg" xmlns:xlink="http://www.w3.org/1999/xlink">
    <!-- Generator: Sketch 44.1 (41455) - http://www.bohemiancoding.com/sketch -->
    <title>Shape</title>
    <desc>Created with Sketch.</desc>
    <defs></defs>
    <g id="Page-1" stroke="none" stroke-width="1" fill="none" fill-rule="evenodd">
        <g id="noun_1075372_cc" fill-rule="nonzero" fill="#FFFFFF">
            <g id="Group">
                <g id="Shape">
                    <path d="M0.414213551,8.99999999 L2.24264068,10.8284271 C2.63316497,11.2189514 2.63316497,11.8521164 2.24264068,12.2426407 C1.85211639,12.633165 1.21895141,12.633165 0.828427111,12.2426407 L-2.70710679,8.70710677 C-2.90236894,8.51184463 -3.00000001,8.25592231 -3.00000001,7.99999999 C-3.00000001,7.74407767 -2.90236894,7.48815535 -2.70710679,7.29289321 L-2.70710679,7.29289321 L0.828427111,3.7573593 C1.21895141,3.36683501 1.85211639,3.36683501 2.24264068,3.7573593 C2.63316497,4.14788359 2.63316497,4.78104857 2.24264068,5.17157287 L0.414213551,6.99999999 L12,6.99999999 C12.5522847,6.99999999 13,7.44771524 13,7.99999999 C13,8.55228474 12.5522847,8.99999999 12,8.99999999 L0.414213551,8.99999999 Z" transform="translate(5.000000, 8.000000) scale(-1, 1) rotate(-90.000000) translate(-5.000000, -8.000000) "></path>
                </g>
            </g>
        </g>
    </g>
</svg>